<svg width="24" height="16" viewBox="0 0 24 16" fill="none" xmlns="http://www.w3.org/2000/svg">
<path fill-rule="evenodd" clip-rule="evenodd" d="M23.1111 7.55555C23.1111 7.33293 23.0242 7.11943 22.8694 6.96202C22.7146 6.8046 22.5047 6.71617 22.2858 6.71617L2.8192 6.71617L8.01392 1.43474C8.09065 1.35669 8.15152 1.26404 8.19306 1.16207C8.23458 1.06011 8.25596 0.950818 8.25596 0.840448C8.25596 0.730079 8.23458 0.620791 8.19306 0.518823C8.15152 0.416855 8.09065 0.324204 8.01392 0.246161C7.93718 0.168118 7.84608 0.106212 7.74582 0.0639753C7.64556 0.0217388 7.53809 -1.46898e-07 7.42957 -1.44783e-07C7.32105 -1.42669e-07 7.21359 0.0217388 7.11333 0.0639753C7.01307 0.106212 6.92197 0.168119 6.84523 0.246161L0.242476 6.96127C0.165614 7.03924 0.104633 7.13187 0.0630252 7.23385C0.0214172 7.33582 -1.86706e-07 7.44515 -1.89474e-07 7.55556C-1.92243e-07 7.66596 0.0214171 7.77529 0.0630251 7.87726C0.104633 7.97924 0.165614 8.07187 0.242476 8.14984L6.84523 14.8649C6.92197 14.943 7.01307 15.0049 7.11333 15.0471C7.21359 15.0894 7.32105 15.1111 7.42957 15.1111C7.53809 15.1111 7.64556 15.0894 7.74582 15.0471C7.84608 15.0049 7.93718 14.943 8.01392 14.8649C8.09065 14.7869 8.15152 14.6943 8.19305 14.5923C8.23458 14.4903 8.25596 14.381 8.25596 14.2707C8.25596 14.1603 8.23458 14.051 8.19305 13.949C8.15152 13.8471 8.09065 13.7544 8.01392 13.6764L2.8192 8.39494L22.2858 8.39494C22.5047 8.39494 22.7146 8.30651 22.8694 8.14909C23.0242 7.99168 23.1111 7.77817 23.1111 7.55555Z" fill="white"/>
</svg>
